{
    "asset" : {
        "generator" : "Khronos glTF Blender I/O v0.9.36",
        "version" : "2.0"
    },
    "scene" : 0,
    "scenes" : [
        {
            "name" : "Scene",
            "nodes" : [
                0,
                1,
                2,
                3,
                4,
                5,
                6,
                7,
                8,
                9
            ]
        }
    ],
    "nodes" : [
        {
            "mesh" : 0,
            "name" : "Cube",
            "translation" : [
                0,
                1,
                0
            ]
        },
        {
            "name" : "Light",
            "rotation" : [
                0.16907575726509094,
                0.7558803558349609,
                -0.27217137813568115,
                0.570947527885437
            ],
            "translation" : [
                4.076245307922363,
                5.903861999511719,
                -1.0054539442062378
            ]
        },
        {
            "name" : "Camera",
            "rotation" : [
                0.483536034822464,
                0.33687159419059753,
                -0.20870360732078552,
                0.7804827094078064
            ],
            "translation" : [
                7.358891487121582,
                4.958309173583984,
                6.925790786743164
            ]
        },
        {
            "mesh" : 1,
            "name" : "Cylinder",
            "scale" : [
                -0.3298850655555725,
                -0.3298850655555725,
                -0.3298850655555725
            ],
            "translation" : [
                0.0960652306675911,
                3.5336315631866455,
                1.785092830657959
            ]
        },
        {
            "mesh" : 2,
            "name" : "Cube.001",
            "scale" : [
                0.1998930424451828,
                0.20463044941425323,
                0.11309924721717834
            ],
            "translation" : [
                0.1011829748749733,
                3.147632598876953,
                -0.5444495677947998
            ]
        },
        {
            "mesh" : 3,
            "name" : "Cube.002",
            "rotation" : [
                0.43349719047546387,
                0,
                0,
                0.9011549353599548
            ],
            "scale" : [
                0.20139141380786896,
                0.07592730224132538,
                0.11309924721717834
            ],
            "translation" : [
                0.1011829748749733,
                4.3805928230285645,
                -0.5236676335334778
            ]
        },
        {
            "mesh" : 4,
            "name" : "Cube.003",
            "rotation" : [
                0.7071067690849304,
                0,
                0,
                0.7071067690849304
            ],
            "scale" : [
                0.1957828551530838,
                0.07592730224132538,
                0.11309924721717834
            ],
            "translation" : [
                0.1011829748749733,
                4.651308059692383,
                -0.14888322353363037
            ]
        },
        {
            "mesh" : 5,
            "name" : "Cube.004",
            "rotation" : [
                0.40690407156944275,
                0,
                0,
                -0.9134709239006042
            ],
            "scale" : [
                -0.1854049265384674,
                0.07592730224132538,
                0.11309924721717834
            ],
            "translation" : [
                0.1011829748749733,
                4.365489482879639,
                1.7598294019699097
            ]
        },
        {
            "mesh" : 6,
            "name" : "Cube.005",
            "scale" : [
                0.18635408580303192,
                0.20463044941425323,
                0.11309924721717834
            ],
            "translation" : [
                0.1011829748749733,
                3.1168787479400635,
                1.779679298400879
            ]
        },
        {
            "mesh" : 7,
            "name" : "Cube.006",
            "translation" : [
                0,
                1,
                0
            ]
        }
    ],
    "materials" : [
        {
            "doubleSided" : true,
            "name" : "Material.001",
            "pbrMetallicRoughness" : {
                "baseColorFactor" : [
                    0.8000000715255737,
                    0.7691974639892578,
                    0.11052943021059036,
                    1
                ],
                "metallicFactor" : 0,
                "roughnessFactor" : 0.5
            }
        },
        {
            "doubleSided" : true,
            "name" : "Material.002",
            "pbrMetallicRoughness" : {
                "baseColorFactor" : [
                    0.8098268508911133,
                    0.7962134480476379,
                    0.8480810523033142,
                    1
                ],
                "metallicFactor" : 0,
                "roughnessFactor" : 0.5
            }
        }
    ],
    "meshes" : [
        {
            "name" : "Cube",
            "primitives" : [
                {
                    "attributes" : {
                        "POSITION" : 0,
                        "NORMAL" : 1,
                        "TEXCOORD_0" : 2
                    },
                    "indices" : 3,
                    "material" : 0
                }
            ]
        },
        {
            "name" : "Cylinder",
            "primitives" : [
                {
                    "attributes" : {
                        "POSITION" : 4,
                        "NORMAL" : 5,
                        "TEXCOORD_0" : 6
                    },
                    "indices" : 7,
                    "material" : 1
                }
            ]
        },
        {
            "name" : "Cube.001",
            "primitives" : [
                {
                    "attributes" : {
                        "POSITION" : 8,
                        "NORMAL" : 9,
                        "TEXCOORD_0" : 10
                    },
                    "indices" : 11,
                    "material" : 0
                }
            ]
        },
        {
            "name" : "Cube.002",
            "primitives" : [
                {
                    "attributes" : {
                        "POSITION" : 12,
                        "NORMAL" : 13,
                        "TEXCOORD_0" : 14
                    },
                    "indices" : 15,
                    "material" : 0
                }
            ]
        },
        {
            "name" : "Cube.003",
            "primitives" : [
                {
                    "attributes" : {
                        "POSITION" : 16,
                        "NORMAL" : 17,
                        "TEXCOORD_0" : 18
                    },
                    "indices" : 11,
                    "material" : 0
                }
            ]
        },
        {
            "name" : "Cube.004",
            "primitives" : [
                {
                    "attributes" : {
                        "POSITION" : 19,
                        "NORMAL" : 20,
                        "TEXCOORD_0" : 21
                    },
                    "indices" : 22,
                    "material" : 0
                }
            ]
        },
        {
            "name" : "Cube.005",
            "primitives" : [
                {
                    "attributes" : {
                        "POSITION" : 23,
                        "NORMAL" : 24,
                        "TEXCOORD_0" : 25
                    },
                    "indices" : 11,
                    "material" : 0
                }
            ]
        },
        {
            "name" : "Cube.006",
            "primitives" : [
                {
                    "attributes" : {
                        "POSITION" : 26,
                        "NORMAL" : 27,
                        "TEXCOORD_0" : 28
                    },
                    "indices" : 29,
                    "material" : 1
                }
            ]
        }
    ],
    "accessors" : [
        {
            "bufferView" : 0,
            "componentType" : 5126,
            "count" : 48,
            "max" : [
                1,
                2,
                2.3114333152770996
            ],
            "min" : [
                -1,
                -1,
                -1
            ],
            "type" : "VEC3"
        },
        {
            "bufferView" : 1,
            "componentType" : 5126,
            "count" : 48,
            "type" : "VEC3"
        },
        {
            "bufferView" : 2,
            "componentType" : 5126,
            "count" : 48,
            "type" : "VEC2"
        },
        {
            "bufferView" : 3,
            "componentType" : 5123,
            "count" : 84,
            "type" : "SCALAR"
        },
        {
            "bufferView" : 4,
            "componentType" : 5126,
            "count" : 192,
            "max" : [
                1,
                2.881711721420288,
                1
            ],
            "min" : [
                -1,
                1,
                -1
            ],
            "type" : "VEC3"
        },
        {
            "bufferView" : 5,
            "componentType" : 5126,
            "count" : 192,
            "type" : "VEC3"
        },
        {
            "bufferView" : 6,
            "componentType" : 5126,
            "count" : 192,
            "type" : "VEC2"
        },
        {
            "bufferView" : 7,
            "componentType" : 5123,
            "count" : 372,
            "type" : "SCALAR"
        },
        {
            "bufferView" : 8,
            "componentType" : 5126,
            "count" : 24,
            "max" : [
                1,
                6.264314651489258,
                1
            ],
            "min" : [
                -1,
                -1,
                -1
            ],
            "type" : "VEC3"
        },
        {
            "bufferView" : 9,
            "componentType" : 5126,
            "count" : 24,
            "type" : "VEC3"
        },
        {
            "bufferView" : 10,
            "componentType" : 5126,
            "count" : 24,
            "type" : "VEC2"
        },
        {
            "bufferView" : 11,
            "componentType" : 5123,
            "count" : 36,
            "type" : "SCALAR"
        },
        {
            "bufferView" : 12,
            "componentType" : 5126,
            "count" : 24,
            "max" : [
                1,
                6.219385147094727,
                0.5604807138442993
            ],
            "min" : [
                -1.0351682901382446,
                -0.9755862951278687,
                -1.0767168998718262
            ],
            "type" : "VEC3"
        },
        {
            "bufferView" : 13,
            "componentType" : 5126,
            "count" : 24,
            "type" : "VEC3"
        },
        {
            "bufferView" : 14,
            "componentType" : 5126,
            "count" : 24,
            "type" : "VEC2"
        },
        {
            "bufferView" : 15,
            "componentType" : 5123,
            "count" : 36,
            "type" : "SCALAR"
        },
        {
            "bufferView" : 16,
            "componentType" : 5126,
            "count" : 24,
            "max" : [
                1,
                21.431350708007812,
                1
            ],
            "min" : [
                -1,
                -1,
                -1.0000004768371582
            ],
            "type" : "VEC3"
        },
        {
            "bufferView" : 17,
            "componentType" : 5126,
            "count" : 24,
            "type" : "VEC3"
        },
        {
            "bufferView" : 18,
            "componentType" : 5126,
            "count" : 24,
            "type" : "VEC2"
        },
        {
            "bufferView" : 19,
            "componentType" : 5126,
            "count" : 24,
            "max" : [
                1,
                6.270139694213867,
                1
            ],
            "min" : [
                -1.0347819328308105,
                -1,
                -1.0353631973266602
            ],
            "type" : "VEC3"
        },
        {
            "bufferView" : 20,
            "componentType" : 5126,
            "count" : 24,
            "type" : "VEC3"
        },
        {
            "bufferView" : 21,
            "componentType" : 5126,
            "count" : 24,
            "type" : "VEC2"
        },
        {
            "bufferView" : 22,
            "componentType" : 5123,
            "count" : 36,
            "type" : "SCALAR"
        },
        {
            "bufferView" : 23,
            "componentType" : 5126,
            "count" : 24,
            "max" : [
                1,
                6.264314651489258,
                1
            ],
            "min" : [
                -1,
                -1,
                -1
            ],
            "type" : "VEC3"
        },
        {
            "bufferView" : 24,
            "componentType" : 5126,
            "count" : 24,
            "type" : "VEC3"
        },
        {
            "bufferView" : 25,
            "componentType" : 5126,
            "count" : 24,
            "type" : "VEC2"
        },
        {
            "bufferView" : 26,
            "componentType" : 5126,
            "count" : 34,
            "max" : [
                1,
                0.6170307993888855,
                1.013333797454834
            ],
            "min" : [
                0,
                -0.03633582592010498,
                0.5158426761627197
            ],
            "type" : "VEC3"
        },
        {
            "bufferView" : 27,
            "componentType" : 5126,
            "count" : 34,
            "type" : "VEC3"
        },
        {
            "bufferView" : 28,
            "componentType" : 5126,
            "count" : 34,
            "type" : "VEC2"
        },
        {
            "bufferView" : 29,
            "componentType" : 5123,
            "count" : 78,
            "type" : "SCALAR"
        }
    ],
    "bufferViews" : [
        {
            "buffer" : 0,
            "byteLength" : 576,
            "byteOffset" : 0
        },
        {
            "buffer" : 0,
            "byteLength" : 576,
            "byteOffset" : 576
        },
        {
            "buffer" : 0,
            "byteLength" : 384,
            "byteOffset" : 1152
        },
        {
            "buffer" : 0,
            "byteLength" : 168,
            "byteOffset" : 1536
        },
        {
            "buffer" : 0,
            "byteLength" : 2304,
            "byteOffset" : 1704
        },
        {
            "buffer" : 0,
            "byteLength" : 2304,
            "byteOffset" : 4008
        },
        {
            "buffer" : 0,
            "byteLength" : 1536,
            "byteOffset" : 6312
        },
        {
            "buffer" : 0,
            "byteLength" : 744,
            "byteOffset" : 7848
        },
        {
            "buffer" : 0,
            "byteLength" : 288,
            "byteOffset" : 8592
        },
        {
            "buffer" : 0,
            "byteLength" : 288,
            "byteOffset" : 8880
        },
        {
            "buffer" : 0,
            "byteLength" : 192,
            "byteOffset" : 9168
        },
        {
            "buffer" : 0,
            "byteLength" : 72,
            "byteOffset" : 9360
        },
        {
            "buffer" : 0,
            "byteLength" : 288,
            "byteOffset" : 9432
        },
        {
            "buffer" : 0,
            "byteLength" : 288,
            "byteOffset" : 9720
        },
        {
            "buffer" : 0,
            "byteLength" : 192,
            "byteOffset" : 10008
        },
        {
            "buffer" : 0,
            "byteLength" : 72,
            "byteOffset" : 10200
        },
        {
            "buffer" : 0,
            "byteLength" : 288,
            "byteOffset" : 10272
        },
        {
            "buffer" : 0,
            "byteLength" : 288,
            "byteOffset" : 10560
        },
        {
            "buffer" : 0,
            "byteLength" : 192,
            "byteOffset" : 10848
        },
        {
            "buffer" : 0,
            "byteLength" : 288,
            "byteOffset" : 11040
        },
        {
            "buffer" : 0,
            "byteLength" : 288,
            "byteOffset" : 11328
        },
        {
            "buffer" : 0,
            "byteLength" : 192,
            "byteOffset" : 11616
        },
        {
            "buffer" : 0,
            "byteLength" : 72,
            "byteOffset" : 11808
        },
        {
            "buffer" : 0,
            "byteLength" : 288,
            "byteOffset" : 11880
        },
        {
            "buffer" : 0,
            "byteLength" : 288,
            "byteOffset" : 12168
        },
        {
            "buffer" : 0,
            "byteLength" : 192,
            "byteOffset" : 12456
        },
        {
            "buffer" : 0,
            "byteLength" : 408,
            "byteOffset" : 12648
        },
        {
            "buffer" : 0,
            "byteLength" : 408,
            "byteOffset" : 13056
        },
        {
            "buffer" : 0,
            "byteLength" : 272,
            "byteOffset" : 13464
        },
        {
            "buffer" : 0,
            "byteLength" : 156,
            "byteOffset" : 13736
        }
    ],
    "buffers" : [
        {
            "byteLength" : 13892,
            "uri" : "lock.bin"
        }
    ]
}
