{
    "asset" : {
        "generator" : "Khronos glTF Blender I/O v0.9.36",
        "version" : "2.0"
    },
    "scene" : 0,
    "scenes" : [
        {
            "name" : "Scene",
            "nodes" : [
                0,
                1,
                2,
                3,
                4,
                5,
                6,
                7,
                8
            ]
        }
    ],
    "nodes" : [
        {
            "name" : "Light",
            "rotation" : [
                0.16907575726509094,
                0.7558803558349609,
                -0.27217137813568115,
                0.570947527885437
            ],
            "translation" : [
                4.076245307922363,
                5.903861999511719,
                -1.0054539442062378
            ]
        },
        {
            "name" : "Camera",
            "rotation" : [
                0.483536034822464,
                0.33687159419059753,
                -0.20870360732078552,
                0.7804827094078064
            ],
            "translation" : [
                7.358891487121582,
                4.958309173583984,
                6.925790786743164
            ]
        },
        {
            "mesh" : 0,
            "name" : "Cube",
            "rotation" : [
                0,
                -0.9999929070472717,
                0,
                0.003765292000025511
            ],
            "translation" : [
                -1.6154284477233887,
                2.5117287635803223,
                1.1056411266326904
            ]
        },
        {
            "mesh" : 1,
            "name" : "Text",
            "rotation" : [
                0.0026627297047525644,
                -0.7070310711860657,
                0.7071724534034729,
                0.002662197221070528
            ],
            "scale" : [
                0.8929125666618347,
                3.1329128742218018,
                1.230055332183838
            ],
            "translation" : [
                0.4078856110572815,
                2.50236439704895,
                0.08980099856853485
            ]
        },
        {
            "mesh" : 2,
            "name" : "Cube.001",
            "rotation" : [
                0,
                -0.9999929070472717,
                0,
                0.003765292000025511
            ],
            "translation" : [
                -1.6154284477233887,
                2.5117287635803223,
                1.1056411266326904
            ]
        },
        {
            "mesh" : 3,
            "name" : "Cylinder",
            "rotation" : [
                0.002662671497091651,
                -0.7071017622947693,
                0.7071017622947693,
                0.002662671497091651
            ],
            "scale" : [
                0.1442377269268036,
                -0.03906403109431267,
                0.1442377269268036
            ],
            "translation" : [
                -2.0682313442230225,
                0.5343492031097412,
                0.06995737552642822
            ]
        },
        {
            "mesh" : 4,
            "name" : "Cylinder.001",
            "rotation" : [
                0.002662671497091651,
                -0.7071017622947693,
                0.7071017622947693,
                0.002662671497091651
            ],
            "scale" : [
                0.1442377269268036,
                -0.03906403109431267,
                0.1442377269268036
            ],
            "translation" : [
                -1.5935487747192383,
                0.5343492031097412,
                0.06638264656066895
            ]
        },
        {
            "mesh" : 5,
            "name" : "Cylinder.002",
            "rotation" : [
                0.002662671497091651,
                0.7071017622947693,
                0.7071017622947693,
                -0.002662671497091651
            ],
            "scale" : [
                0.1442377269268036,
                -0.03906403109431267,
                0.1442377269268036
            ],
            "translation" : [
                -1.1007673740386963,
                0.5343492031097412,
                0.06267166137695312
            ]
        },
        {
            "mesh" : 6,
            "name" : "Cylinder.003",
            "rotation" : [
                0.002662671497091651,
                -0.7071017622947693,
                0.7071017622947693,
                0.002662671497091651
            ],
            "scale" : [
                0.1442377269268036,
                -0.03906403109431267,
                0.1442377269268036
            ],
            "translation" : [
                -2.0682313442230225,
                1.0037550926208496,
                0.06995737552642822
            ]
        }
    ],
    "materials" : [
        {
            "doubleSided" : true,
            "name" : "Material.001",
            "pbrMetallicRoughness" : {
                "baseColorFactor" : [
                    0,
                    0.7318305373191833,
                    0.8000000715255737,
                    1
                ],
                "metallicFactor" : 0,
                "roughnessFactor" : 0.5
            }
        },
        {
            "doubleSided" : true,
            "name" : "Material.002",
            "pbrMetallicRoughness" : {
                "baseColorFactor" : [
                    0.7002569437026978,
                    0.8000000715255737,
                    0,
                    1
                ],
                "metallicFactor" : 0,
                "roughnessFactor" : 0.5
            }
        },
        {
            "doubleSided" : true,
            "name" : "Material",
            "pbrMetallicRoughness" : {
                "baseColorFactor" : [
                    0.8000000715255737,
                    0,
                    0.7064065337181091,
                    1
                ],
                "metallicFactor" : 0,
                "roughnessFactor" : 0.5
            }
        }
    ],
    "meshes" : [
        {
            "name" : "Cube.001",
            "primitives" : [
                {
                    "attributes" : {
                        "POSITION" : 0,
                        "NORMAL" : 1,
                        "TEXCOORD_0" : 2
                    },
                    "indices" : 3,
                    "material" : 0
                }
            ]
        },
        {
            "name" : "Text",
            "primitives" : [
                {
                    "attributes" : {
                        "POSITION" : 4,
                        "NORMAL" : 5
                    },
                    "indices" : 6,
                    "material" : 1
                }
            ]
        },
        {
            "name" : "Cube.002",
            "primitives" : [
                {
                    "attributes" : {
                        "POSITION" : 7,
                        "NORMAL" : 8,
                        "TEXCOORD_0" : 9
                    },
                    "indices" : 10,
                    "material" : 1
                }
            ]
        },
        {
            "name" : "Cylinder",
            "primitives" : [
                {
                    "attributes" : {
                        "POSITION" : 11,
                        "NORMAL" : 12,
                        "TEXCOORD_0" : 13
                    },
                    "indices" : 14,
                    "material" : 2
                }
            ]
        },
        {
            "name" : "Cylinder.001",
            "primitives" : [
                {
                    "attributes" : {
                        "POSITION" : 15,
                        "NORMAL" : 16,
                        "TEXCOORD_0" : 17
                    },
                    "indices" : 14,
                    "material" : 2
                }
            ]
        },
        {
            "name" : "Cylinder.002",
            "primitives" : [
                {
                    "attributes" : {
                        "POSITION" : 18,
                        "NORMAL" : 19,
                        "TEXCOORD_0" : 20
                    },
                    "indices" : 14,
                    "material" : 1
                }
            ]
        },
        {
            "name" : "Cylinder.003",
            "primitives" : [
                {
                    "attributes" : {
                        "POSITION" : 21,
                        "NORMAL" : 22,
                        "TEXCOORD_0" : 23
                    },
                    "indices" : 14,
                    "material" : 1
                }
            ]
        }
    ],
    "accessors" : [
        {
            "bufferView" : 0,
            "componentType" : 5126,
            "count" : 52,
            "max" : [
                1,
                1,
                1
            ],
            "min" : [
                -2.0912837982177734,
                -3.373481512069702,
                -1
            ],
            "type" : "VEC3"
        },
        {
            "bufferView" : 1,
            "componentType" : 5126,
            "count" : 52,
            "type" : "VEC3"
        },
        {
            "bufferView" : 2,
            "componentType" : 5126,
            "count" : 52,
            "type" : "VEC2"
        },
        {
            "bufferView" : 3,
            "componentType" : 5123,
            "count" : 90,
            "type" : "SCALAR"
        },
        {
            "bufferView" : 4,
            "componentType" : 5126,
            "count" : 3017,
            "max" : [
                3.2280001640319824,
                0.02960098721086979,
                0.009000043384730816
            ],
            "min" : [
                0.07599996775388718,
                0,
                -0.6910000443458557
            ],
            "type" : "VEC3"
        },
        {
            "bufferView" : 5,
            "componentType" : 5126,
            "count" : 3017,
            "type" : "VEC3"
        },
        {
            "bufferView" : 6,
            "componentType" : 5123,
            "count" : 5364,
            "type" : "SCALAR"
        },
        {
            "bufferView" : 7,
            "componentType" : 5126,
            "count" : 8,
            "max" : [
                -0.25856542587280273,
                -0.7882035970687866,
                0.9851452708244324
            ],
            "min" : [
                -1.3187469244003296,
                -1.4342962503433228,
                0.6753649115562439
            ],
            "type" : "VEC3"
        },
        {
            "bufferView" : 8,
            "componentType" : 5126,
            "count" : 8,
            "type" : "VEC3"
        },
        {
            "bufferView" : 9,
            "componentType" : 5126,
            "count" : 8,
            "type" : "VEC2"
        },
        {
            "bufferView" : 10,
            "componentType" : 5123,
            "count" : 12,
            "type" : "SCALAR"
        },
        {
            "bufferView" : 11,
            "componentType" : 5126,
            "count" : 192,
            "max" : [
                1,
                1,
                1
            ],
            "min" : [
                -1,
                -1,
                -1
            ],
            "type" : "VEC3"
        },
        {
            "bufferView" : 12,
            "componentType" : 5126,
            "count" : 192,
            "type" : "VEC3"
        },
        {
            "bufferView" : 13,
            "componentType" : 5126,
            "count" : 192,
            "type" : "VEC2"
        },
        {
            "bufferView" : 14,
            "componentType" : 5123,
            "count" : 372,
            "type" : "SCALAR"
        },
        {
            "bufferView" : 15,
            "componentType" : 5126,
            "count" : 192,
            "max" : [
                1,
                1,
                1
            ],
            "min" : [
                -1,
                -1,
                -1
            ],
            "type" : "VEC3"
        },
        {
            "bufferView" : 16,
            "componentType" : 5126,
            "count" : 192,
            "type" : "VEC3"
        },
        {
            "bufferView" : 17,
            "componentType" : 5126,
            "count" : 192,
            "type" : "VEC2"
        },
        {
            "bufferView" : 18,
            "componentType" : 5126,
            "count" : 192,
            "max" : [
                1,
                1,
                1
            ],
            "min" : [
                -1,
                -1,
                -1
            ],
            "type" : "VEC3"
        },
        {
            "bufferView" : 19,
            "componentType" : 5126,
            "count" : 192,
            "type" : "VEC3"
        },
        {
            "bufferView" : 20,
            "componentType" : 5126,
            "count" : 192,
            "type" : "VEC2"
        },
        {
            "bufferView" : 21,
            "componentType" : 5126,
            "count" : 192,
            "max" : [
                1,
                1,
                1
            ],
            "min" : [
                -1,
                -1,
                -1
            ],
            "type" : "VEC3"
        },
        {
            "bufferView" : 22,
            "componentType" : 5126,
            "count" : 192,
            "type" : "VEC3"
        },
        {
            "bufferView" : 23,
            "componentType" : 5126,
            "count" : 192,
            "type" : "VEC2"
        }
    ],
    "bufferViews" : [
        {
            "buffer" : 0,
            "byteLength" : 624,
            "byteOffset" : 0
        },
        {
            "buffer" : 0,
            "byteLength" : 624,
            "byteOffset" : 624
        },
        {
            "buffer" : 0,
            "byteLength" : 416,
            "byteOffset" : 1248
        },
        {
            "buffer" : 0,
            "byteLength" : 180,
            "byteOffset" : 1664
        },
        {
            "buffer" : 0,
            "byteLength" : 36204,
            "byteOffset" : 1844
        },
        {
            "buffer" : 0,
            "byteLength" : 36204,
            "byteOffset" : 38048
        },
        {
            "buffer" : 0,
            "byteLength" : 10728,
            "byteOffset" : 74252
        },
        {
            "buffer" : 0,
            "byteLength" : 96,
            "byteOffset" : 84980
        },
        {
            "buffer" : 0,
            "byteLength" : 96,
            "byteOffset" : 85076
        },
        {
            "buffer" : 0,
            "byteLength" : 64,
            "byteOffset" : 85172
        },
        {
            "buffer" : 0,
            "byteLength" : 24,
            "byteOffset" : 85236
        },
        {
            "buffer" : 0,
            "byteLength" : 2304,
            "byteOffset" : 85260
        },
        {
            "buffer" : 0,
            "byteLength" : 2304,
            "byteOffset" : 87564
        },
        {
            "buffer" : 0,
            "byteLength" : 1536,
            "byteOffset" : 89868
        },
        {
            "buffer" : 0,
            "byteLength" : 744,
            "byteOffset" : 91404
        },
        {
            "buffer" : 0,
            "byteLength" : 2304,
            "byteOffset" : 92148
        },
        {
            "buffer" : 0,
            "byteLength" : 2304,
            "byteOffset" : 94452
        },
        {
            "buffer" : 0,
            "byteLength" : 1536,
            "byteOffset" : 96756
        },
        {
            "buffer" : 0,
            "byteLength" : 2304,
            "byteOffset" : 98292
        },
        {
            "buffer" : 0,
            "byteLength" : 2304,
            "byteOffset" : 100596
        },
        {
            "buffer" : 0,
            "byteLength" : 1536,
            "byteOffset" : 102900
        },
        {
            "buffer" : 0,
            "byteLength" : 2304,
            "byteOffset" : 104436
        },
        {
            "buffer" : 0,
            "byteLength" : 2304,
            "byteOffset" : 106740
        },
        {
            "buffer" : 0,
            "byteLength" : 1536,
            "byteOffset" : 109044
        }
    ],
    "buffers" : [
        {
            "byteLength" : 110580,
            "uri" : "drug-machine.bin"
        }
    ]
}
