{
    "asset" : {
        "generator" : "Khronos glTF Blender I/O v0.9.36",
        "version" : "2.0"
    },
    "scene" : 0,
    "scenes" : [
        {
            "name" : "Scene",
            "nodes" : [
                0
            ]
        }
    ],
    "nodes" : [
        {
            "mesh" : 0,
            "name" : "chest",
            "scale" : [
                20.97161102294922,
                10.162866592407227,
                11.468629837036133
            ],
            "translation" : [
                1.0014801025390625,
                18.262493133544922,
                -0.519773006439209
            ]
        }
    ],
    "materials" : [
        {
            "doubleSided" : true,
            "name" : "Material.001",
            "pbrMetallicRoughness" : {
                "baseColorFactor" : [
                    0.8000000715255737,
                    0.7004522681236267,
                    0,
                    1
                ],
                "metallicFactor" : 0,
                "roughnessFactor" : 0.5
            }
        },
        {
            "doubleSided" : true,
            "name" : "Material",
            "pbrMetallicRoughness" : {
                "baseColorFactor" : [
                    0.3290952444076538,
                    0.8000000715255737,
                    0.05726125091314316,
                    1
                ],
                "metallicFactor" : 0,
                "roughnessFactor" : 0.5
            }
        },
        {
            "doubleSided" : true,
            "name" : "Material.002",
            "pbrMetallicRoughness" : {
                "baseColorFactor" : [
                    0.800000011920929,
                    0.800000011920929,
                    0.800000011920929,
                    1
                ],
                "metallicFactor" : 0,
                "roughnessFactor" : 0.5
            }
        },
        {
            "doubleSided" : true,
            "name" : "Material.005",
            "pbrMetallicRoughness" : {
                "baseColorFactor" : [
                    0.8000000715255737,
                    0,
                    0.022873086854815483,
                    1
                ],
                "metallicFactor" : 0,
                "roughnessFactor" : 0.5
            }
        }
    ],
    "meshes" : [
        {
            "name" : "Cube.007",
            "primitives" : [
                {
                    "attributes" : {
                        "POSITION" : 0,
                        "NORMAL" : 1,
                        "TEXCOORD_0" : 2,
                        "COLOR_0" : 3
                    },
                    "indices" : 4,
                    "material" : 0
                },
                {
                    "attributes" : {
                        "POSITION" : 5,
                        "NORMAL" : 6,
                        "TEXCOORD_0" : 7,
                        "COLOR_0" : 8
                    },
                    "indices" : 9,
                    "material" : 1
                },
                {
                    "attributes" : {
                        "POSITION" : 10,
                        "NORMAL" : 11,
                        "TEXCOORD_0" : 12,
                        "COLOR_0" : 13
                    },
                    "indices" : 14,
                    "material" : 2
                },
                {
                    "attributes" : {
                        "POSITION" : 15,
                        "NORMAL" : 16,
                        "TEXCOORD_0" : 17,
                        "COLOR_0" : 18
                    },
                    "indices" : 4,
                    "material" : 3
                }
            ]
        }
    ],
    "accessors" : [
        {
            "bufferView" : 0,
            "componentType" : 5126,
            "count" : 48,
            "max" : [
                1.0432252883911133,
                3.5865516662597656,
                0.9126929044723511
            ],
            "min" : [
                -1.070718765258789,
                1.3113877773284912,
                -0.39569440484046936
            ],
            "type" : "VEC3"
        },
        {
            "bufferView" : 1,
            "componentType" : 5126,
            "count" : 48,
            "type" : "VEC3"
        },
        {
            "bufferView" : 2,
            "componentType" : 5126,
            "count" : 48,
            "type" : "VEC2"
        },
        {
            "bufferView" : 3,
            "componentType" : 5126,
            "count" : 48,
            "type" : "VEC4"
        },
        {
            "bufferView" : 4,
            "componentType" : 5123,
            "count" : 72,
            "type" : "SCALAR"
        },
        {
            "bufferView" : 5,
            "componentType" : 5126,
            "count" : 393,
            "max" : [
                0.9800835251808167,
                4.3678507804870605,
                0.9120991826057434
            ],
            "min" : [
                -1.0012128353118896,
                -0.6872597932815552,
                -1.0438400506973267
            ],
            "type" : "VEC3"
        },
        {
            "bufferView" : 6,
            "componentType" : 5126,
            "count" : 393,
            "type" : "VEC3"
        },
        {
            "bufferView" : 7,
            "componentType" : 5126,
            "count" : 393,
            "type" : "VEC2"
        },
        {
            "bufferView" : 8,
            "componentType" : 5126,
            "count" : 393,
            "type" : "VEC4"
        },
        {
            "bufferView" : 9,
            "componentType" : 5123,
            "count" : 669,
            "type" : "SCALAR"
        },
        {
            "bufferView" : 10,
            "componentType" : 5126,
            "count" : 97,
            "max" : [
                0.7400128245353699,
                4.031639099121094,
                0.917048454284668
            ],
            "min" : [
                -0.9028012156486511,
                -1.6585283279418945,
                -0.9768000245094299
            ],
            "type" : "VEC3"
        },
        {
            "bufferView" : 11,
            "componentType" : 5126,
            "count" : 97,
            "type" : "VEC3"
        },
        {
            "bufferView" : 12,
            "componentType" : 5126,
            "count" : 97,
            "type" : "VEC2"
        },
        {
            "bufferView" : 13,
            "componentType" : 5126,
            "count" : 97,
            "type" : "VEC4"
        },
        {
            "bufferView" : 14,
            "componentType" : 5123,
            "count" : 147,
            "type" : "SCALAR"
        },
        {
            "bufferView" : 15,
            "componentType" : 5126,
            "count" : 48,
            "max" : [
                0.20589444041252136,
                3.4913079738616943,
                0.9512007832527161
            ],
            "min" : [
                -0.338650643825531,
                3.294512987136841,
                0.7768120169639587
            ],
            "type" : "VEC3"
        },
        {
            "bufferView" : 16,
            "componentType" : 5126,
            "count" : 48,
            "type" : "VEC3"
        },
        {
            "bufferView" : 17,
            "componentType" : 5126,
            "count" : 48,
            "type" : "VEC2"
        },
        {
            "bufferView" : 18,
            "componentType" : 5126,
            "count" : 48,
            "type" : "VEC4"
        }
    ],
    "bufferViews" : [
        {
            "buffer" : 0,
            "byteLength" : 576,
            "byteOffset" : 0
        },
        {
            "buffer" : 0,
            "byteLength" : 576,
            "byteOffset" : 576
        },
        {
            "buffer" : 0,
            "byteLength" : 384,
            "byteOffset" : 1152
        },
        {
            "buffer" : 0,
            "byteLength" : 768,
            "byteOffset" : 1536
        },
        {
            "buffer" : 0,
            "byteLength" : 144,
            "byteOffset" : 2304
        },
        {
            "buffer" : 0,
            "byteLength" : 4716,
            "byteOffset" : 2448
        },
        {
            "buffer" : 0,
            "byteLength" : 4716,
            "byteOffset" : 7164
        },
        {
            "buffer" : 0,
            "byteLength" : 3144,
            "byteOffset" : 11880
        },
        {
            "buffer" : 0,
            "byteLength" : 6288,
            "byteOffset" : 15024
        },
        {
            "buffer" : 0,
            "byteLength" : 1338,
            "byteOffset" : 21312
        },
        {
            "buffer" : 0,
            "byteLength" : 1164,
            "byteOffset" : 22652
        },
        {
            "buffer" : 0,
            "byteLength" : 1164,
            "byteOffset" : 23816
        },
        {
            "buffer" : 0,
            "byteLength" : 776,
            "byteOffset" : 24980
        },
        {
            "buffer" : 0,
            "byteLength" : 1552,
            "byteOffset" : 25756
        },
        {
            "buffer" : 0,
            "byteLength" : 294,
            "byteOffset" : 27308
        },
        {
            "buffer" : 0,
            "byteLength" : 576,
            "byteOffset" : 27604
        },
        {
            "buffer" : 0,
            "byteLength" : 576,
            "byteOffset" : 28180
        },
        {
            "buffer" : 0,
            "byteLength" : 384,
            "byteOffset" : 28756
        },
        {
            "buffer" : 0,
            "byteLength" : 768,
            "byteOffset" : 29140
        }
    ],
    "buffers" : [
        {
            "byteLength" : 29908,
            "uri" : "green-partier.bin"
        }
    ]
}
