{
    "asset" : {
        "generator" : "Khronos glTF Blender I/O v0.9.36",
        "version" : "2.0"
    },
    "scene" : 0,
    "scenes" : [
        {
            "name" : "Scene",
            "nodes" : [
                0,
                1
            ]
        }
    ],
    "nodes" : [
        {
            "mesh" : 0,
            "name" : "Cube",
            "translation" : [
                -0.9999847412109375,
                0.047122955322265625,
                0.5693120956420898
            ]
        },
        {
            "mesh" : 1,
            "name" : "Cube.001",
            "scale" : [
                1.086930751800537,
                1.086930751800537,
                1.1521708965301514
            ],
            "translation" : [
                -0.9984391927719116,
                -0.1997346580028534,
                0.5864366292953491
            ]
        }
    ],
    "materials" : [
        {
            "doubleSided" : true,
            "name" : "Material.001",
            "pbrMetallicRoughness" : {
                "baseColorFactor" : [
                    0.7780072689056396,
                    0.6955174207687378,
                    0.7940192222595215,
                    1
                ],
                "metallicFactor" : 0,
                "roughnessFactor" : 0.5
            }
        },
        {
            "doubleSided" : true,
            "name" : "Material",
            "pbrMetallicRoughness" : {
                "baseColorFactor" : [
                    0.27028703689575195,
                    0.22964927554130554,
                    0.2519896626472473,
                    1
                ],
                "metallicFactor" : 0,
                "roughnessFactor" : 0.4000000059604645
            }
        }
    ],
    "meshes" : [
        {
            "name" : "Cube",
            "primitives" : [
                {
                    "attributes" : {
                        "POSITION" : 0,
                        "NORMAL" : 1,
                        "TEXCOORD_0" : 2
                    },
                    "indices" : 3,
                    "material" : 0
                }
            ]
        },
        {
            "name" : "Cube.001",
            "primitives" : [
                {
                    "attributes" : {
                        "POSITION" : 4,
                        "NORMAL" : 5,
                        "TEXCOORD_0" : 6
                    },
                    "indices" : 7,
                    "material" : 1
                }
            ]
        }
    ],
    "accessors" : [
        {
            "bufferView" : 0,
            "componentType" : 5126,
            "count" : 45,
            "max" : [
                0.9999847412109375,
                4.48934268951416,
                1.4306879043579102
            ],
            "min" : [
                -1.52587890625e-05,
                -0.047122955322265625,
                -1.2686583995819092
            ],
            "type" : "VEC3"
        },
        {
            "bufferView" : 1,
            "componentType" : 5126,
            "count" : 45,
            "type" : "VEC3"
        },
        {
            "bufferView" : 2,
            "componentType" : 5126,
            "count" : 45,
            "type" : "VEC2"
        },
        {
            "bufferView" : 3,
            "componentType" : 5123,
            "count" : 93,
            "type" : "SCALAR"
        },
        {
            "bufferView" : 4,
            "componentType" : 5126,
            "count" : 7616,
            "max" : [
                1.0024057626724243,
                4.177617073059082,
                0.896212100982666
            ],
            "min" : [
                0.629264235496521,
                2.4945151805877686,
                -0.7889679074287415
            ],
            "type" : "VEC3"
        },
        {
            "bufferView" : 5,
            "componentType" : 5126,
            "count" : 7616,
            "type" : "VEC3"
        },
        {
            "bufferView" : 6,
            "componentType" : 5126,
            "count" : 7616,
            "type" : "VEC2"
        },
        {
            "bufferView" : 7,
            "componentType" : 5123,
            "count" : 11424,
            "type" : "SCALAR"
        }
    ],
    "bufferViews" : [
        {
            "buffer" : 0,
            "byteLength" : 540,
            "byteOffset" : 0
        },
        {
            "buffer" : 0,
            "byteLength" : 540,
            "byteOffset" : 540
        },
        {
            "buffer" : 0,
            "byteLength" : 360,
            "byteOffset" : 1080
        },
        {
            "buffer" : 0,
            "byteLength" : 186,
            "byteOffset" : 1440
        },
        {
            "buffer" : 0,
            "byteLength" : 91392,
            "byteOffset" : 1628
        },
        {
            "buffer" : 0,
            "byteLength" : 91392,
            "byteOffset" : 93020
        },
        {
            "buffer" : 0,
            "byteLength" : 60928,
            "byteOffset" : 184412
        },
        {
            "buffer" : 0,
            "byteLength" : 22848,
            "byteOffset" : 245340
        }
    ],
    "buffers" : [
        {
            "byteLength" : 268188,
            "uri" : "speaker.bin"
        }
    ]
}
